<svg width="846" height="168" viewBox="0 0 846 168" fill="none" xmlns="http://www.w3.org/2000/svg">
<path d="M40.7242 167.009V37.5725L114.03 83.5044L57.0096 116.908V167.009L126.249 125.257V45.1405L52.9437 0L0 29.2243V137.205L40.7242 167.009Z" fill="white"/>
<path d="M57.0156 99.6778V137.413L126.249 95.582V44.3955C126.249 44.3955 114.031 66.1391 93.638 78.7175C73.2451 91.2959 57.0156 99.6778 57.0156 99.6778Z" fill="#D9D9D9"/>
<path d="M179.163 92.3547L178.165 92.3568V93.3547V130.07H157.794V36.9385H198.469C206.086 36.9385 212.118 37.8272 216.614 39.5545C221.197 41.3715 225.087 44.6819 227.689 48.9903L227.696 49.0025L227.704 49.0145C230.636 53.5708 232.179 58.9314 232.129 64.4045V64.4136C232.129 69.9605 230.799 74.6643 228.182 78.5717C225.563 82.4825 221.609 85.6627 216.253 88.084L215.369 88.4838L215.742 89.3796L232.673 130.037H210.271L195.959 92.9612L195.711 92.3199L195.024 92.3214L179.163 92.3547ZM179.165 51.8771H178.165V52.8771V77.1148V78.1148H179.165H192.757C196.096 78.249 199.438 77.9226 202.694 77.1446L202.743 77.1328L202.791 77.116C205.173 76.2844 207.228 74.6913 208.66 72.5761C210.342 70.2692 211.233 67.4566 211.198 64.5779C211.221 61.7938 210.325 59.0811 208.653 56.8847C207.281 54.8718 205.294 53.3813 203 52.6558L202.939 52.6365L202.875 52.6251C199.373 51.9941 195.816 51.7434 192.263 51.8771H179.165Z" fill="white" stroke="white" stroke-width="2"/>
<path d="M273.544 113.261H318.696V130.07H251.463V36.9385H318.696V53.0593H273.544H272.544V54.0593V73.5783V74.5783H273.544H308.85V90.4883H273.544H272.544V91.4883V112.261V113.261H273.544Z" fill="white" stroke="white" stroke-width="2"/>
<path d="M408.171 70.2467L386.839 71.5578C386.563 65.1564 385.153 60.1592 382.484 56.7009C379.633 53.0074 375.456 51.2096 370.121 51.2096C367.049 51.2096 364.313 51.902 361.948 53.3197C359.584 54.7366 357.646 56.8452 356.117 59.595C353.076 65.0645 351.614 73.1401 351.614 83.6952C351.614 89.7831 352.013 94.9266 352.823 99.1108C353.631 103.284 354.861 106.573 356.573 108.893C359.951 113.47 364.695 115.757 370.683 115.765H370.684C375.546 115.765 379.546 114.156 382.582 110.892C385.443 107.815 387.374 103.349 388.456 97.6011L408.153 98.8184C406.657 109.645 402.541 117.808 395.883 123.424C388.974 129.252 380.508 132.184 370.424 132.184C358.063 132.184 348.077 127.889 340.377 119.314C332.685 110.749 328.799 98.8453 328.842 83.4731V83.4703C328.842 69.1008 332.613 57.4287 340.079 48.3702C347.513 39.3525 357.653 34.8242 370.619 34.8242C381.879 34.8242 390.548 37.8826 396.759 43.8823C402.805 49.7221 406.645 58.4653 408.171 70.2467Z" fill="white" stroke="white" stroke-width="2"/>
<path d="M489.069 36.9385L460.18 90.5255L460.06 90.7477V91.0001V130.07H439.988V91.0001V90.7476L439.868 90.5254L410.968 36.9385H434.35L452.083 72.4054L452.979 74.1986L453.873 72.4037L471.521 36.9385H489.069Z" fill="white" stroke="white" stroke-width="2"/>
<path d="M569.037 70.2467L547.689 71.5578C547.413 65.1566 546.005 60.1596 543.339 56.7014C540.492 53.0077 536.319 51.2096 530.99 51.2096C527.921 51.2096 525.188 51.9021 522.825 53.32C520.464 54.737 518.528 56.8457 517.001 59.5955C513.963 65.0648 512.504 73.1402 512.504 83.6952C512.504 89.7829 512.901 94.9262 513.709 99.1102C514.514 103.283 515.739 106.572 517.445 108.891C520.813 113.469 525.552 115.757 531.54 115.765H531.541C536.402 115.765 540.4 114.155 543.434 110.891C546.294 107.815 548.223 103.349 549.304 97.6012L568.975 98.8183C567.474 109.646 563.362 117.809 556.72 123.424C549.826 129.252 541.371 132.184 531.293 132.184C518.932 132.184 508.959 127.889 501.283 119.315C493.613 110.749 489.714 98.8437 489.707 83.4703L569.037 70.2467ZM569.037 70.2467C567.515 58.4654 563.675 49.7224 557.623 43.8827C551.405 37.8829 542.723 34.8242 531.444 34.8242C518.487 34.8242 508.355 39.3523 500.931 48.3697C493.473 57.4282 489.707 69.1002 489.707 83.4698L569.037 70.2467Z" fill="white" stroke="white" stroke-width="2"/>
<path d="M604.285 112.263L604.286 113.261H605.285H642.465V130.07H583.377V36.9385H604.188L604.285 112.263Z" fill="white" stroke="white" stroke-width="2"/>
<path d="M678.039 113.261H721.88V130.07H656.683V36.9385H721.88V53.0593H678.039H677.039V54.0593V73.5783V74.5783H678.039H712.271V90.4883H678.039H677.039V91.4883V112.261V113.261H678.039Z" fill="white" stroke="white" stroke-width="2"/>
<path d="M807.292 36.9422L782.058 79.6052L781.76 80.1093L782.054 80.616L810.74 130.07H787.142L768.244 96.0736L767.371 94.5017L766.496 96.0734L747.588 130.07H728.695L757.437 80.8739L757.734 80.3663L757.435 79.8603L732.069 36.9829H755.759L770.96 65.307L771.819 66.9082L772.712 65.3255L788.701 36.9816L807.292 36.9422Z" fill="white" stroke="white" stroke-width="2"/>
<path d="M828.664 22.7519V22.2519V10.7034V10.2034H829.164H837.028H837.028V10.7034C837.698 10.7028 838.358 10.8642 838.956 11.1746L828.664 22.7519ZM828.664 22.7519H829.164H837.227C837.995 22.7557 838.753 22.57 839.435 22.2113L839.435 22.2114L839.443 22.2071C840.092 21.8518 840.658 21.36 841.107 20.765C841.562 20.1611 841.917 19.4845 842.157 18.7627C842.413 18.0078 842.541 17.2141 842.536 16.4155C842.534 14.8136 841.966 13.2649 840.935 12.0578L840.935 12.0577L840.927 12.0489C840.434 11.498 839.841 11.0492 839.18 10.7277L828.664 22.7519ZM838.578 24.3028L844.16 33.3245H842.585L836.924 24.1989L836.777 23.9625H836.499H829.164H828.664V24.4625V33.3245H827.23V8.95656H837.157V8.9566L837.164 8.95652C838.101 8.94456 839.028 9.16162 839.869 9.59052L839.87 9.59116C840.701 10.0119 841.447 10.5906 842.07 11.2974C842.68 12.007 843.163 12.8226 843.496 13.7066L843.496 13.7079C843.825 14.572 843.997 15.4909 844.005 16.4193C844.004 17.2739 843.877 18.1234 843.627 18.9383C843.385 19.7051 843.03 20.4292 842.577 21.0858L842.577 21.0858C842.145 21.7105 841.607 22.2484 840.989 22.6734C840.359 23.1065 839.651 23.4041 838.907 23.5489L838.197 23.6874L838.578 24.3028Z" fill="white" stroke="white"/>
</svg>
