<svg viewBox="0 0 437 86" fill="none" xmlns="http://www.w3.org/2000/svg">
<path d="M20.967 86V19.3477L58.7088 43L29.3516 60.2011V86L65 64.5V23.2448L27.2582 0L0 15.0489V70.6527L20.967 86Z" fill="white"/>
<path d="M29 51.5274V71L65 49.4139V23C65 23 58.6467 34.2204 48.0429 40.7113C37.439 47.2021 29 51.5274 29 51.5274Z" fill="#D9D9D9"/>
<path d="M92.5624 46.5737L91.5645 46.5758V47.5737V66H82V19H102.544C106.449 19 109.501 19.4549 111.749 20.3147C114.017 21.2115 115.945 22.8455 117.236 24.9747L117.243 24.9869L117.251 24.999C118.715 27.2654 119.485 29.9331 119.46 32.6577H119.46V32.6669C119.46 35.4428 118.794 37.7676 117.503 39.6881C116.209 41.6123 114.244 43.198 111.539 44.4165L110.652 44.8161L111.027 45.7139L119.498 65.9829H108.975L101.696 47.1953L101.448 46.5551L100.762 46.5566L92.5624 46.5737ZM92.5645 25.7247H91.5645V26.7247V39.209V40.209H92.5645H99.581C101.348 40.2788 103.116 40.1063 104.839 39.6961L104.888 39.6844L104.936 39.6678C106.264 39.2057 107.408 38.3222 108.206 37.1515C109.134 35.8803 109.625 34.3331 109.607 32.7505C109.618 31.2154 109.124 29.7187 108.199 28.5039C107.43 27.3843 106.317 26.5534 105.03 26.148L104.969 26.1288L104.906 26.1175C103.065 25.7869 101.195 25.6553 99.3264 25.7247H92.5645Z" fill="white" stroke="white" stroke-width="2"/>
<path d="M141.669 58.312H164V66H131V19H164V26.3336H141.669H140.669V27.3336V37.3874V38.3874H141.669H159.022V45.6124H141.669H140.669V46.6124V57.312V58.312H141.669Z" fill="white" stroke="white" stroke-width="2"/>
<path d="M192.09 60.3603H192.092C194.721 60.3603 196.919 59.4712 198.586 57.6525C200.072 56.0312 201.07 53.7427 201.651 50.8802L210.859 51.4577C210.044 56.7853 207.989 60.7744 204.767 63.5324C201.301 66.5001 197.052 68 191.958 68C185.715 68 180.702 65.806 176.829 61.4283C172.962 57.0583 170.978 50.9536 171 42.9851V42.9823C171 35.545 172.921 29.5487 176.689 24.9102C180.421 20.3141 185.506 18 192.058 18C197.771 18 202.105 19.5722 205.195 22.6016C208.127 25.4762 210.053 29.7738 210.873 35.6184L200.881 36.2417C200.688 33.0693 199.952 30.5127 198.564 28.687C196.987 26.6132 194.676 25.622 191.801 25.622C190.139 25.622 188.638 26.003 187.332 26.7976C186.028 27.5909 184.974 28.7627 184.154 30.261C182.528 33.2275 181.774 37.5488 181.774 43.1C181.774 46.3037 181.98 49.0272 182.406 51.2557C182.829 53.4727 183.481 55.2708 184.421 56.5646C186.259 59.0911 188.855 60.356 192.09 60.3603Z" fill="white" stroke="white" stroke-width="2"/>
<path d="M252.324 19L237.814 45.886L237.694 46.1083V46.3609V66H228.312V46.3609V46.1082L228.192 45.8858L213.676 19H224.621L233.631 37.0005L234.528 38.7913L235.421 36.9988L244.387 19H252.324Z" fill="white" stroke="white" stroke-width="2"/>
<path d="M275.087 60.3603H275.086C271.85 60.356 269.256 59.091 267.424 56.5633C266.487 55.2695 265.837 53.4718 265.416 51.2551C264.992 49.0268 264.786 46.3036 264.786 43.1C264.786 37.5489 265.54 33.2278 267.163 30.2615C267.983 28.7633 269.035 27.5913 270.338 26.7979C271.643 26.0031 273.143 25.622 274.803 25.622C277.676 25.622 279.984 26.6135 281.559 28.6875C282.946 30.5131 283.681 33.0695 283.873 36.2417L293.874 35.6183C293.056 29.7739 291.13 25.4765 288.194 22.602C285.101 19.5725 280.76 18 275.037 18C268.489 18 263.41 20.3139 259.682 24.9097C255.919 29.5482 254 35.5445 254 42.9819L275.087 60.3603ZM275.087 60.3603C277.716 60.3603 279.914 59.4711 281.579 57.6523C283.064 56.031 284.062 53.7426 284.642 50.8802M275.087 60.3603L284.642 50.8802M284.642 50.8802L293.836 51.4576C293.019 56.7858 290.966 60.7751 287.752 63.5331C284.294 66.5002 280.051 68 274.959 68C268.717 68 263.711 65.8061 259.85 61.4295C255.994 57.0584 254.004 50.952 254 42.9823L284.642 50.8802Z" fill="white" stroke="white" stroke-width="2"/>
<path d="M312 57.3133L312.001 58.312H313H332V66H302V19H311.95L312 57.3133Z" fill="white" stroke="white" stroke-width="2"/>
<path d="M350.644 58.312H373V66H340V19H373V26.3336H350.644H349.644V27.3336V37.3874V38.3874H350.644H367.995V45.6124H350.644H349.644V46.6124V57.312V58.312H350.644Z" fill="white" stroke="white" stroke-width="2"/>
<path d="M395.92 48.7388L386.331 66H377.741L392.103 41.3894L392.399 40.8822L392.101 40.3766L379.483 19.0229H390.53L398.213 33.3559L399.072 34.9593L399.965 33.3744L408.053 19.0216L416.482 19.0037L403.933 40.2452L403.635 40.749L403.928 41.2552L418.265 66H407.252L397.668 48.739L396.794 47.1648L395.92 48.7388Z" fill="white" stroke="white" stroke-width="2"/>
<path d="M428.695 11.5696V11.0696V5.15167V4.65167H429.195H433.057H433.057V5.15167C433.386 5.15136 433.71 5.23407 434.004 5.39309L428.695 11.5696ZM428.695 11.5696H429.195H433.154M428.695 11.5696H433.154M435.269 10.4464C435.508 10.1158 435.694 9.74628 435.819 9.35321C435.952 8.94263 436.019 8.51144 436.016 8.07796C436.015 7.20584 435.719 6.35895 435.176 5.69538L435.176 5.69529L435.168 5.68638C434.906 5.38106 434.59 5.13057 434.236 4.95017L435.269 10.4464ZM435.269 10.4464C435.029 10.7786 434.724 11.0553 434.373 11.2561L434.365 11.2605L434.365 11.2605C433.992 11.4649 433.577 11.5717 433.154 11.5696M435.269 10.4464L433.154 11.5696M433.154 11.5696C433.153 11.5696 433.153 11.5696 433.153 11.5696L433.155 11.0696V11.5696H433.154ZM435.334 5.60803C435.615 5.94922 435.838 6.34249 435.993 6.77015L435.993 6.7714C436.145 7.18833 436.225 7.6324 436.229 8.0815C436.229 8.49681 436.169 8.90935 436.053 9.30472C435.941 9.67584 435.776 10.0254 435.567 10.3417L435.567 10.3417C435.371 10.6379 435.127 10.8912 434.85 11.0905C434.569 11.292 434.255 11.4292 433.927 11.4958L433.238 11.636L433.597 12.2408L436.122 16.5H435.934L433.227 11.947L433.082 11.7025H432.797H429.195H428.695V12.2025V16.5H428.5V4.50026H433.121V4.50031L433.127 4.50022C433.542 4.49469 433.954 4.59486 434.329 4.79448L434.33 4.79515C434.708 4.99465 435.049 5.26992 435.334 5.60803Z" fill="white" stroke="white"/>
</svg>
